<mxfile host="app.diagrams.net" modified="2021-03-21T05:06:09.997Z" agent="5.0 (Macintosh; Intel Mac OS X 10_15_6) AppleWebKit/605.1.15 (KHTML, like Gecko) Version/14.0.3 Safari/605.1.15" etag="LPcsCG65U5EXEVxRlxQi" version="14.4.9" type="github">
  <diagram id="qrla7_maV-IxaroYy1DS" name="第 1 页">
    <mxGraphModel dx="937" dy="541" grid="1" gridSize="10" guides="1" tooltips="1" connect="1" arrows="1" fold="1" page="1" pageScale="1" pageWidth="827" pageHeight="1169" math="0" shadow="0">
      <root>
        <mxCell id="0" />
        <mxCell id="1" parent="0" />
        <mxCell id="EtOsvU2LQ5JmaoIYtsxa-1" value="应用" style="rounded=0;whiteSpace=wrap;html=1;fontSize=16;fillColor=#dae8fc;strokeColor=#6c8ebf;" vertex="1" parent="1">
          <mxGeometry x="170" y="180" width="100" height="40" as="geometry" />
        </mxCell>
        <mxCell id="EtOsvU2LQ5JmaoIYtsxa-2" value="redis" style="rounded=0;whiteSpace=wrap;html=1;fontSize=16;fillColor=#ffe6cc;strokeColor=#d79b00;" vertex="1" parent="1">
          <mxGeometry x="350" y="180" width="100" height="40" as="geometry" />
        </mxCell>
        <mxCell id="EtOsvU2LQ5JmaoIYtsxa-3" value="mysql" style="rounded=0;whiteSpace=wrap;html=1;fontSize=16;fillColor=#f8cecc;strokeColor=#b85450;" vertex="1" parent="1">
          <mxGeometry x="530" y="180" width="100" height="40" as="geometry" />
        </mxCell>
        <mxCell id="EtOsvU2LQ5JmaoIYtsxa-4" value="" style="endArrow=none;html=1;entryX=0.5;entryY=1;entryDx=0;entryDy=0;fontSize=16;" edge="1" parent="1" target="EtOsvU2LQ5JmaoIYtsxa-1">
          <mxGeometry width="50" height="50" relative="1" as="geometry">
            <mxPoint x="220" y="470" as="sourcePoint" />
            <mxPoint x="230" y="230" as="targetPoint" />
          </mxGeometry>
        </mxCell>
        <mxCell id="EtOsvU2LQ5JmaoIYtsxa-5" value="" style="endArrow=none;html=1;entryX=0.5;entryY=1;entryDx=0;entryDy=0;fontSize=16;" edge="1" parent="1">
          <mxGeometry width="50" height="50" relative="1" as="geometry">
            <mxPoint x="399.5" y="470" as="sourcePoint" />
            <mxPoint x="399.5" y="220" as="targetPoint" />
          </mxGeometry>
        </mxCell>
        <mxCell id="EtOsvU2LQ5JmaoIYtsxa-6" value="" style="endArrow=none;html=1;entryX=0.5;entryY=1;entryDx=0;entryDy=0;fontSize=16;" edge="1" parent="1">
          <mxGeometry width="50" height="50" relative="1" as="geometry">
            <mxPoint x="579.5" y="470" as="sourcePoint" />
            <mxPoint x="579.5" y="220" as="targetPoint" />
          </mxGeometry>
        </mxCell>
        <mxCell id="EtOsvU2LQ5JmaoIYtsxa-7" value="" style="endArrow=classic;html=1;fontSize=16;" edge="1" parent="1">
          <mxGeometry width="50" height="50" relative="1" as="geometry">
            <mxPoint x="220" y="280" as="sourcePoint" />
            <mxPoint x="400" y="280" as="targetPoint" />
          </mxGeometry>
        </mxCell>
        <mxCell id="EtOsvU2LQ5JmaoIYtsxa-8" value="从缓存读取数据" style="edgeLabel;html=1;align=center;verticalAlign=middle;resizable=0;points=[];fontSize=16;" vertex="1" connectable="0" parent="EtOsvU2LQ5JmaoIYtsxa-7">
          <mxGeometry x="0.0889" y="4" relative="1" as="geometry">
            <mxPoint x="-8" y="4" as="offset" />
          </mxGeometry>
        </mxCell>
        <mxCell id="EtOsvU2LQ5JmaoIYtsxa-9" value="" style="endArrow=classic;html=1;fontSize=16;" edge="1" parent="1">
          <mxGeometry width="50" height="50" relative="1" as="geometry">
            <mxPoint x="220" y="360" as="sourcePoint" />
            <mxPoint x="580" y="360" as="targetPoint" />
          </mxGeometry>
        </mxCell>
        <mxCell id="EtOsvU2LQ5JmaoIYtsxa-10" value="从数据库读取数据" style="edgeLabel;html=1;align=center;verticalAlign=middle;resizable=0;points=[];fontSize=16;" vertex="1" connectable="0" parent="EtOsvU2LQ5JmaoIYtsxa-9">
          <mxGeometry x="0.0889" y="4" relative="1" as="geometry">
            <mxPoint x="-16" y="4" as="offset" />
          </mxGeometry>
        </mxCell>
        <mxCell id="EtOsvU2LQ5JmaoIYtsxa-13" value="" style="endArrow=classic;html=1;fontSize=16;" edge="1" parent="1">
          <mxGeometry width="50" height="50" relative="1" as="geometry">
            <mxPoint x="400" y="320" as="sourcePoint" />
            <mxPoint x="220" y="320" as="targetPoint" />
          </mxGeometry>
        </mxCell>
        <mxCell id="EtOsvU2LQ5JmaoIYtsxa-14" value="缓存不存在" style="edgeLabel;html=1;align=center;verticalAlign=middle;resizable=0;points=[];fontSize=16;" vertex="1" connectable="0" parent="EtOsvU2LQ5JmaoIYtsxa-13">
          <mxGeometry x="-0.3333" relative="1" as="geometry">
            <mxPoint x="-30" as="offset" />
          </mxGeometry>
        </mxCell>
        <mxCell id="EtOsvU2LQ5JmaoIYtsxa-17" value="返回数据库中的数据" style="endArrow=classic;html=1;fontSize=16;" edge="1" parent="1">
          <mxGeometry width="50" height="50" relative="1" as="geometry">
            <mxPoint x="580" y="410" as="sourcePoint" />
            <mxPoint x="220" y="410" as="targetPoint" />
            <mxPoint as="offset" />
          </mxGeometry>
        </mxCell>
        <mxCell id="EtOsvU2LQ5JmaoIYtsxa-18" value="将数据加载到缓存" style="endArrow=classic;html=1;fontSize=16;" edge="1" parent="1">
          <mxGeometry width="50" height="50" relative="1" as="geometry">
            <mxPoint x="220" y="450" as="sourcePoint" />
            <mxPoint x="400" y="450" as="targetPoint" />
          </mxGeometry>
        </mxCell>
        <mxCell id="EtOsvU2LQ5JmaoIYtsxa-22" value="缓存过期" style="text;html=1;align=center;verticalAlign=middle;resizable=0;points=[];autosize=1;fontSize=16;fillColor=#ffff88;strokeColor=#36393d;" vertex="1" parent="1">
          <mxGeometry x="400" y="240" width="80" height="20" as="geometry" />
        </mxCell>
      </root>
    </mxGraphModel>
  </diagram>
</mxfile>
